<svg width="24" height="24" viewBox="0 0 24 24" fill="none" xmlns="http://www.w3.org/2000/svg">
<g clip-path="url(#clip0_419_13776)">
<path d="M21.4325 14.4935L17.4864 16.4891C17.3951 16.2766 17.259 16.0863 17.0875 15.9311C16.9161 15.7759 16.7132 15.6595 16.4927 15.5897L9.36683 13.3397C9.03427 13.231 8.68083 13.2019 8.33496 13.2547C7.9891 13.3076 7.66048 13.4409 7.37558 13.644L4.54063 15.6222L4.27691 15.079C4.24433 15.0119 4.18644 14.9605 4.11597 14.9361C4.04549 14.9117 3.96821 14.9162 3.90111 14.9488L0.158424 16.7658C0.125181 16.7819 0.0954386 16.8044 0.070897 16.832C0.0463553 16.8596 0.027495 16.8918 0.0153936 16.9267C0.00329218 16.9616 -0.00181324 16.9986 0.000369008 17.0354C0.00255125 17.0723 0.0119784 17.1084 0.0281119 17.1417L3.28124 23.8416C3.31382 23.9087 3.37173 23.9601 3.44221 23.9845C3.51269 24.0089 3.58998 24.0043 3.65708 23.9718L7.39977 22.1547C7.433 22.1385 7.46272 22.116 7.48725 22.0884C7.51178 22.0608 7.53063 22.0286 7.54272 21.9937C7.55481 21.9588 7.55991 21.9219 7.55773 21.885C7.55554 21.8481 7.54612 21.812 7.52999 21.7788L7.30363 21.3125L8.20227 20.7659C8.2426 20.7397 8.28773 20.7218 8.33505 20.7132C8.38236 20.7046 8.43092 20.7055 8.47789 20.7158L15.7792 22.1367C15.8855 22.1575 15.9935 22.1681 16.1019 22.1683C16.4502 22.1679 16.7885 22.0516 17.0635 21.8377L23.34 17.071C23.5289 16.9258 23.6851 16.7424 23.7982 16.5327C23.9114 16.3231 23.979 16.0919 23.9967 15.8543C24.0134 15.6633 23.9892 15.4709 23.9256 15.2899C23.8621 15.109 23.7607 14.9437 23.6282 14.8051C23.1422 14.1862 22.2829 14.0635 21.4325 14.4935ZM3.66435 23.3429L0.657081 17.149L3.8938 15.5775L6.90106 21.7715L3.66435 23.3429ZM23.4352 15.8161C23.4225 15.9734 23.3772 16.1264 23.3022 16.2654C23.2272 16.4043 23.1241 16.5261 22.9995 16.623L16.723 21.3897C16.6063 21.4816 16.4709 21.5467 16.3264 21.5803C16.1818 21.614 16.0315 21.6154 15.8863 21.5845L8.5851 20.1636C8.35269 20.1161 8.11092 20.1597 7.90977 20.2855L7.05664 20.8044L4.78949 16.1344L7.69756 14.1052C7.91142 13.9506 8.15902 13.8492 8.41987 13.8093C8.68071 13.7695 8.9473 13.7923 9.19757 13.876L16.3234 16.126C16.5881 16.2101 16.8088 16.3955 16.9376 16.6416C17.0664 16.8877 17.0927 17.1747 17.0109 17.4402L16.9878 17.5146C16.9108 17.7688 16.7399 17.984 16.5098 18.1165C16.2797 18.249 16.0077 18.2888 15.7493 18.2277L10.1719 16.9513C10.0991 16.9347 10.0228 16.9476 9.95958 16.9873C9.89638 17.0269 9.85152 17.0901 9.83488 17.1628C9.81823 17.2355 9.83116 17.3119 9.87081 17.3751C9.91047 17.4383 9.9736 17.4831 10.0463 17.4998L15.6235 18.7761C15.7404 18.8029 15.8599 18.8165 15.9798 18.8165C16.3245 18.8159 16.66 18.7055 16.9378 18.5014C17.2156 18.2973 17.4212 18.0101 17.5248 17.6813L17.548 17.6068C17.6037 17.4276 17.6275 17.2399 17.6183 17.0525L21.6864 14.9953C22.1669 14.7523 22.8149 14.6685 23.1925 15.1616C23.2001 15.1714 23.2082 15.1807 23.217 15.1895C23.2965 15.2719 23.3572 15.3706 23.3949 15.4788C23.4325 15.587 23.4463 15.7021 23.4352 15.8161ZM16.8596 13.7951C18.3698 13.7951 19.775 13.256 20.7149 12.3162C21.4612 11.5698 21.8861 10.6917 21.9776 9.70615C22.0573 8.85064 21.8951 7.92729 21.4824 6.88334C20.7452 5.0187 19.3168 3.11797 18.1692 1.59064C17.7735 1.06409 17.4 0.566748 17.0906 0.121014C17.0647 0.0836723 17.0302 0.0531584 16.9899 0.0320835C16.9497 0.0110085 16.9049 0 16.8595 0C16.814 0 16.7693 0.0110085 16.729 0.0320835C16.6888 0.0531584 16.6542 0.0836723 16.6283 0.121014C16.3192 0.566795 15.9455 1.06414 15.5498 1.59073C14.4022 3.11801 12.9739 5.01875 12.2367 6.88339C11.8242 7.92734 11.662 8.85064 11.7415 9.70615C11.833 10.6917 12.2579 11.5698 13.0042 12.3162C13.9442 13.256 15.3494 13.7951 16.8596 13.7951ZM15.9996 1.92865C16.3052 1.52201 16.5978 1.13267 16.8596 0.768451C17.1215 1.13262 17.414 1.52197 17.7195 1.92856C19.9987 4.96137 23.1201 9.11548 20.3172 11.9184C19.482 12.7536 18.2219 13.2326 16.8596 13.2326C15.4973 13.2326 14.2373 12.7536 13.4021 11.9184C10.5992 9.11548 13.7205 4.96165 15.9996 1.92865ZM16.8596 11.7016C17.3949 11.7016 17.9181 11.5429 18.3632 11.2455C18.8083 10.9481 19.1552 10.5254 19.36 10.0309C19.5649 9.53635 19.6185 8.99218 19.514 8.46719C19.4096 7.9422 19.1518 7.45996 18.7733 7.08147C18.3948 6.70298 17.9126 6.44523 17.3876 6.34082C16.8626 6.2364 16.3184 6.29001 15.8239 6.49487C15.3294 6.69973 14.9067 7.04664 14.6093 7.49172C14.312 7.9368 14.1533 8.46006 14.1533 8.99534C14.1541 9.71284 14.4395 10.4007 14.9469 10.9081C15.4542 11.4154 16.1421 11.7008 16.8596 11.7016ZM16.8596 6.85133C17.2836 6.85132 17.6981 6.97704 18.0507 7.2126C18.4032 7.44816 18.678 7.78298 18.8403 8.17471C19.0026 8.56644 19.0451 8.9975 18.9624 9.41337C18.8797 9.82924 18.6755 10.2112 18.3757 10.5111C18.0759 10.8109 17.6939 11.0151 17.278 11.0979C16.8621 11.1806 16.4311 11.1382 16.0393 10.9759C15.6476 10.8137 15.3128 10.5389 15.0772 10.1864C14.8416 9.83384 14.7158 9.41936 14.7158 8.99534C14.7164 8.42693 14.9424 7.88198 15.3444 7.48003C15.7463 7.07809 16.2912 6.85198 16.8596 6.85133ZM15.3295 8.99534C15.3295 8.92075 15.3591 8.84921 15.4118 8.79647C15.4646 8.74372 15.5361 8.71409 15.6107 8.71409H16.5784V7.74626C16.5784 7.67167 16.608 7.60013 16.6607 7.54739C16.7135 7.49465 16.785 7.46501 16.8596 7.46501C16.9342 7.46501 17.0057 7.49465 17.0585 7.54739C17.1112 7.60013 17.1409 7.67167 17.1409 7.74626V8.71409H18.1085C18.1831 8.71409 18.2546 8.74372 18.3074 8.79647C18.3601 8.84921 18.3898 8.92075 18.3898 8.99534C18.3898 9.06993 18.3601 9.14147 18.3074 9.19422C18.2546 9.24696 18.1831 9.27659 18.1085 9.27659H17.1409V10.2443C17.1409 10.3189 17.1112 10.3904 17.0585 10.4432C17.0057 10.4959 16.9342 10.5255 16.8596 10.5255C16.785 10.5255 16.7135 10.4959 16.6607 10.4432C16.608 10.3904 16.5784 10.3189 16.5784 10.2443V9.27659H15.6107C15.5361 9.27659 15.4646 9.24696 15.4118 9.19422C15.3591 9.14147 15.3295 9.06993 15.3295 8.99534Z" fill="black"/>
</g>
<defs>
<clipPath id="clip0_419_13776">
<rect width="24" height="24" fill="white"/>
</clipPath>
</defs>
</svg>
