<svg width="42" height="42" viewBox="0 0 42 42" fill="none" xmlns="http://www.w3.org/2000/svg">
<g filter="url(#filter0_d_373_6839)">
<rect x="6" y="4" width="30" height="30" rx="15" fill="white"/>
<path d="M14.0667 16.9814C10.7161 16.9814 8 19.448 8 22.4907C8 25.5334 10.7161 28 14.0667 28C14.0707 28 14.0747 28 14.0787 28H25.3283C25.3299 28 25.3316 28 25.3333 28C30.1198 28 34 24.4763 34 20.1296C34 15.7828 30.1198 12.2591 25.3333 12.2591C21.7935 12.2591 18.7494 14.1864 17.4038 16.9484M14.0667 16.9814C14.8574 16.9814 15.6127 17.1188 16.3054 17.3687C16.7244 17.5198 17.2143 17.3373 17.4038 16.9484M14.0667 16.9814C13.214 16.9814 12.4025 17.1411 11.6663 17.4295C11.1739 16.6817 10.8889 15.7958 10.8889 14.8461C10.8889 12.1697 13.1523 10 15.9444 10C18.223 10 20.1494 11.4449 20.781 13.431C19.2995 14.2631 18.1146 15.4893 17.4038 16.9484" stroke="#929292" stroke-width="1.5"/>
</g>
<defs>
<filter id="filter0_d_373_6839" x="0" y="0" width="42" height="42" filterUnits="userSpaceOnUse" color-interpolation-filters="sRGB">
<feFlood flood-opacity="0" result="BackgroundImageFix"/>
<feColorMatrix in="SourceAlpha" type="matrix" values="0 0 0 0 0 0 0 0 0 0 0 0 0 0 0 0 0 0 127 0" result="hardAlpha"/>
<feOffset dy="2"/>
<feGaussianBlur stdDeviation="3"/>
<feComposite in2="hardAlpha" operator="out"/>
<feColorMatrix type="matrix" values="0 0 0 0 0.172549 0 0 0 0 0.611765 0 0 0 0 1 0 0 0 0.15 0"/>
<feBlend mode="normal" in2="BackgroundImageFix" result="effect1_dropShadow_373_6839"/>
<feBlend mode="normal" in="SourceGraphic" in2="effect1_dropShadow_373_6839" result="shape"/>
</filter>
</defs>
</svg>
