<svg width="24" height="24" viewBox="0 0 24 24" fill="none" xmlns="http://www.w3.org/2000/svg">
<path d="M11.1667 3.66663H9.50008C5.33341 3.66663 3.66675 5.33329 3.66675 9.49996V14.5C3.66675 18.6666 5.33341 20.3333 9.50008 20.3333H14.5001C18.6667 20.3333 20.3334 18.6666 20.3334 14.5V12.8333" stroke="#292D32" stroke-width="1.5" stroke-linecap="round" stroke-linejoin="round"/>
<path d="M15.3666 4.51651L8.7999 11.0832C8.5499 11.3332 8.2999 11.8248 8.2499 12.1832L7.89157 14.6915C7.75823 15.5998 8.3999 16.2332 9.30823 16.1082L11.8166 15.7498C12.1666 15.6998 12.6582 15.4498 12.9166 15.1998L19.4832 8.63318C20.6166 7.49984 21.1499 6.18318 19.4832 4.51651C17.8166 2.84984 16.4999 3.38318 15.3666 4.51651Z" stroke="#292D32" stroke-width="1.5" stroke-miterlimit="10" stroke-linecap="round" stroke-linejoin="round"/>
<path d="M14.425 5.45825C14.9834 7.44992 16.5417 9.00825 18.5417 9.57492" stroke="#292D32" stroke-width="1.5" stroke-miterlimit="10" stroke-linecap="round" stroke-linejoin="round"/>
</svg>
