<svg width="24" height="24" viewBox="0 0 24 24" fill="none" xmlns="http://www.w3.org/2000/svg">
<g clip-path="url(#clip0_419_13780)">
<path d="M22.125 21H20.4562C22.2497 19.0604 23.2471 16.5167 23.25 13.875C23.2527 12.3891 22.9369 10.9198 22.3237 9.56624C22.4625 9.20767 22.5205 8.82295 22.4937 8.43942C22.4669 8.05589 22.3559 7.68297 22.1687 7.34718C21.9815 7.01138 21.7226 6.72095 21.4104 6.49654C21.0982 6.27213 20.7404 6.11924 20.3625 6.04874L20.655 4.96874C20.6787 4.8724 20.6653 4.77068 20.6175 4.68374C20.567 4.59752 20.485 4.53431 20.3888 4.50749L19.3013 4.21874L19.4963 3.49499C19.4963 3.49499 20.2838 3.70124 20.3175 3.70124C20.3836 3.70068 20.4483 3.68256 20.505 3.64874C20.591 3.59976 20.6543 3.51895 20.6813 3.42374L21.0675 1.97249C21.0803 1.92497 21.0835 1.87538 21.077 1.8266C21.0705 1.77782 21.0544 1.73081 21.0297 1.68827C21.0049 1.64574 20.972 1.60853 20.9328 1.57879C20.8936 1.54905 20.8489 1.52736 20.8013 1.51499L17.1788 0.54374C17.1317 0.531206 17.0827 0.528066 17.0344 0.5345C16.9861 0.540935 16.9396 0.556817 16.8975 0.58124C16.8545 0.605829 16.8167 0.638706 16.7865 0.67797C16.7562 0.717234 16.7341 0.762105 16.7213 0.80999L16.3312 2.25749C16.3061 2.35346 16.32 2.45549 16.3699 2.54124C16.4198 2.62699 16.5016 2.68946 16.5975 2.71499L17.3212 2.90999L17.13 3.63374L16.0425 3.34124C15.9462 3.31756 15.8444 3.33095 15.7575 3.37874C15.6713 3.42921 15.6081 3.51125 15.5812 3.60749L13.6387 10.8525C13.6142 10.9489 13.6283 11.0511 13.678 11.1373C13.7278 11.2235 13.8092 11.2868 13.905 11.3137L14.2687 11.4112L13.9763 12.495C13.9526 12.5913 13.966 12.6931 14.0137 12.78C14.0642 12.8662 14.1463 12.9294 14.2425 12.9562L14.6063 13.0537L14.3137 14.1412C14.301 14.1888 14.2977 14.2383 14.3042 14.2871C14.3107 14.3359 14.3268 14.3829 14.3516 14.4255C14.3763 14.468 14.4092 14.5052 14.4485 14.5349C14.4877 14.5647 14.5324 14.5864 14.58 14.5987C14.58 14.5987 16.0912 15 16.125 15C16.1905 14.9989 16.2548 14.9822 16.3125 14.9512C16.3987 14.9008 16.4619 14.8187 16.4888 14.7225L16.7775 13.635C16.7775 13.635 17.205 13.7437 17.2388 13.7437C17.321 13.7439 17.401 13.7167 17.4661 13.6664C17.5313 13.6162 17.5779 13.5458 17.5988 13.4662L17.8912 12.3825C17.8912 12.3825 18.315 12.4912 18.3488 12.4912C18.4315 12.4916 18.5121 12.4646 18.5778 12.4144C18.6436 12.3642 18.691 12.2936 18.7125 12.2137L19.0087 11.1C19.2513 11.1855 19.5055 11.2335 19.7625 11.2425C20.2814 12.6046 20.3889 14.0891 20.0715 15.5118C19.7542 16.9344 19.0261 18.2325 17.9775 19.245C17.7434 18.8646 17.4157 18.5504 17.0258 18.3325C16.6359 18.1146 16.1967 18.0001 15.75 18C15.6244 18.0005 15.4991 18.0105 15.375 18.03V17.625H18C18.0995 17.625 18.1948 17.5855 18.2652 17.5152C18.3355 17.4448 18.375 17.3494 18.375 17.25V16.125C18.375 16.0255 18.3355 15.9302 18.2652 15.8598C18.1948 15.7895 18.0995 15.75 18 15.75H10.5C10.4005 15.75 10.3052 15.7895 10.2348 15.8598C10.1645 15.9302 10.125 16.0255 10.125 16.125V17.25C10.125 17.3494 10.1645 17.4448 10.2348 17.5152C10.3052 17.5855 10.4005 17.625 10.5 17.625H13.125V21H9.375C9.07691 21.0009 8.79127 21.1197 8.58049 21.3305C8.3697 21.5413 8.25089 21.8269 8.25 22.125V22.875C8.25 22.9744 8.28951 23.0698 8.35983 23.1402C8.43016 23.2105 8.52554 23.25 8.625 23.25H22.875C22.9745 23.25 23.0698 23.2105 23.1402 23.1402C23.2105 23.0698 23.25 22.9744 23.25 22.875V22.125C23.2491 21.8269 23.1303 21.5413 22.9195 21.3305C22.7087 21.1197 22.4231 21.0009 22.125 21ZM17.1562 2.08874L17.3475 1.36499L20.2463 2.14124L20.0513 2.86499L17.1562 2.08874ZM18.7725 3.29999L18.5775 4.02374L17.8538 3.82874L18.0487 3.10499L18.7725 3.29999ZM15.8588 14.1675L15.135 13.9725L15.33 13.2487L16.0538 13.44L15.8588 14.1675ZM16.9725 12.9112L14.7975 12.33L14.9925 11.6025L17.1675 12.1875L16.9725 12.9112ZM18.0825 11.655L14.46 10.6837L16.2112 4.16249L19.83 5.13749L19.5938 6.01499C19.0671 6.0709 18.5697 6.28512 18.1672 6.6294C17.7647 6.97367 17.476 7.43184 17.3392 7.94349C17.2024 8.45514 17.2238 8.99626 17.4007 9.49549C17.5775 9.99471 17.9016 10.4286 18.33 10.74L18.0825 11.655ZM19.875 10.5C19.5042 10.5 19.1416 10.39 18.8333 10.184C18.525 9.97797 18.2846 9.68513 18.1427 9.34252C18.0008 8.99991 17.9637 8.62291 18.036 8.2592C18.1084 7.89548 18.287 7.56139 18.5492 7.29916C18.8114 7.03694 19.1455 6.85837 19.5092 6.78602C19.8729 6.71367 20.2499 6.7508 20.5925 6.89272C20.9351 7.03463 21.228 7.27495 21.434 7.5833C21.64 7.89164 21.75 8.25415 21.75 8.62499C21.75 9.12227 21.5525 9.59918 21.2008 9.95082C20.8492 10.3024 20.3723 10.5 19.875 10.5ZM21 13.875C20.9977 12.9513 20.8392 12.0346 20.5312 11.1637C21.039 11.0311 21.4959 10.7505 21.8438 10.3575C22.2806 11.4786 22.5032 12.6718 22.5 13.875C22.4982 15.2116 22.222 16.5337 21.6886 17.7592C21.1551 18.9848 20.3758 20.0878 19.3988 21H18.375V20.625C18.3744 20.4074 18.3467 20.1907 18.2925 19.98C19.1446 19.2075 19.8257 18.2652 20.2919 17.2138C20.7582 16.1625 20.9994 15.0251 21 13.875ZM15.75 18.75C16.2473 18.75 16.7242 18.9475 17.0758 19.2992C17.4275 19.6508 17.625 20.1277 17.625 20.625V21H13.875V20.625C13.875 20.1277 14.0725 19.6508 14.4242 19.2992C14.7758 18.9475 15.2527 18.75 15.75 18.75ZM13.875 18.7912V17.625H14.625V18.2587C14.3445 18.3889 14.0903 18.5694 13.875 18.7912ZM10.875 16.875V16.5H17.625V16.875H10.875ZM22.5 22.5H9V22.125C9 22.0255 9.03951 21.9302 9.10983 21.8598C9.18016 21.7895 9.27554 21.75 9.375 21.75H22.125C22.2245 21.75 22.3198 21.7895 22.3902 21.8598C22.4605 21.9302 22.5 22.0255 22.5 22.125V22.5Z" fill="black"/>
<path d="M7.875 10.125C7.875 10.0255 7.83549 9.93016 7.76517 9.85983C7.69484 9.78951 7.59946 9.75 7.5 9.75H7.125V8.96625C7.459 8.90994 7.77584 8.77851 8.05163 8.58187L8.60625 9.1365L8.34113 9.40162C8.30531 9.43622 8.27674 9.4776 8.25709 9.52335C8.23743 9.5691 8.22709 9.61831 8.22666 9.6681C8.22622 9.71789 8.23571 9.76727 8.25457 9.81336C8.27342 9.85944 8.30127 9.90131 8.33648 9.93652C8.37169 9.97173 8.41356 9.99958 8.45964 10.0184C8.50573 10.0373 8.55511 10.0468 8.6049 10.0463C8.65469 10.0459 8.7039 10.0356 8.74965 10.0159C8.7954 9.99626 8.83678 9.96769 8.87138 9.93188L9.93188 8.87138C10.0002 8.80065 10.038 8.70592 10.0371 8.6076C10.0363 8.50928 9.99683 8.41522 9.92731 8.34569C9.85778 8.27617 9.76372 8.23673 9.6654 8.23587C9.56708 8.23502 9.47235 8.27282 9.40162 8.34113L9.1365 8.60625L8.58187 8.05163C8.77851 7.77584 8.90994 7.459 8.96625 7.125H9.75V7.5C9.75 7.59946 9.78951 7.69484 9.85983 7.76517C9.93016 7.83549 10.0255 7.875 10.125 7.875C10.2245 7.875 10.3198 7.83549 10.3902 7.76517C10.4605 7.69484 10.5 7.59946 10.5 7.5V6C10.5 5.90054 10.4605 5.80516 10.3902 5.73484C10.3198 5.66451 10.2245 5.625 10.125 5.625C10.0255 5.625 9.93016 5.66451 9.85983 5.73484C9.78951 5.80516 9.75 5.90054 9.75 6V6.375H8.96625C8.90994 6.041 8.77851 5.72416 8.58187 5.44838L9.1365 4.89375L9.40162 5.15887C9.47235 5.22718 9.56708 5.26498 9.6654 5.26413C9.76372 5.26327 9.85778 5.22383 9.92731 5.15431C9.99683 5.08478 10.0363 4.99072 10.0371 4.8924C10.038 4.79408 10.0002 4.69935 9.93188 4.62863L8.87138 3.56813C8.80065 3.49982 8.70592 3.46202 8.6076 3.46287C8.50928 3.46373 8.41522 3.50317 8.34569 3.57269C8.27617 3.64222 8.23673 3.73628 8.23587 3.8346C8.23502 3.93292 8.27282 4.02765 8.34113 4.09837L8.60625 4.3635L8.05163 4.91812C7.77584 4.72149 7.459 4.59006 7.125 4.53375V3.75H7.5C7.59946 3.75 7.69484 3.71049 7.76517 3.64016C7.83549 3.56984 7.875 3.47446 7.875 3.375C7.875 3.27554 7.83549 3.18016 7.76517 3.10984C7.69484 3.03951 7.59946 3 7.5 3H6C5.90054 3 5.80516 3.03951 5.73484 3.10984C5.66451 3.18016 5.625 3.27554 5.625 3.375C5.625 3.47446 5.66451 3.56984 5.73484 3.64016C5.80516 3.71049 5.90054 3.75 6 3.75H6.375V4.53375C6.041 4.59006 5.72416 4.72149 5.44838 4.91812L4.89375 4.3635L5.15887 4.09837C5.22718 4.02765 5.26498 3.93292 5.26413 3.8346C5.26327 3.73628 5.22383 3.64222 5.15431 3.57269C5.08478 3.50317 4.99072 3.46373 4.8924 3.46287C4.79408 3.46202 4.69935 3.49982 4.62863 3.56813L3.56813 4.62863C3.53231 4.66322 3.50374 4.7046 3.48409 4.75035C3.46443 4.7961 3.45409 4.84531 3.45366 4.8951C3.45322 4.94489 3.46271 4.99427 3.48157 5.04036C3.50042 5.08644 3.52827 5.12831 3.56348 5.16352C3.59869 5.19873 3.64056 5.22658 3.68664 5.24543C3.73273 5.26429 3.78211 5.27378 3.8319 5.27334C3.88169 5.27291 3.9309 5.26257 3.97665 5.24291C4.0224 5.22326 4.06378 5.19469 4.09837 5.15887L4.3635 4.89375L4.91812 5.44838C4.72149 5.72416 4.59006 6.041 4.53375 6.375H3.75V6C3.75 5.90054 3.71049 5.80516 3.64016 5.73484C3.56984 5.66451 3.47446 5.625 3.375 5.625C3.27554 5.625 3.18016 5.66451 3.10984 5.73484C3.03951 5.80516 3 5.90054 3 6V7.5C3 7.59946 3.03951 7.69484 3.10984 7.76517C3.18016 7.83549 3.27554 7.875 3.375 7.875C3.47446 7.875 3.56984 7.83549 3.64016 7.76517C3.71049 7.69484 3.75 7.59946 3.75 7.5V7.125H4.53375C4.59006 7.459 4.72149 7.77584 4.91812 8.05163L4.3635 8.60625L4.09837 8.34113C4.02765 8.27282 3.93292 8.23502 3.8346 8.23587C3.73628 8.23673 3.64222 8.27617 3.57269 8.34569C3.50317 8.41522 3.46373 8.50928 3.46287 8.6076C3.46202 8.70592 3.49982 8.80065 3.56813 8.87138L4.62863 9.93188C4.69935 10.0002 4.79408 10.038 4.8924 10.0371C4.99072 10.0363 5.08478 9.99683 5.15431 9.92731C5.22383 9.85778 5.26327 9.76372 5.26413 9.6654C5.26498 9.56708 5.22718 9.47235 5.15887 9.40162L4.89375 9.1365L5.44838 8.58187C5.72416 8.77851 6.041 8.90994 6.375 8.96625V9.75H6C5.90054 9.75 5.80516 9.78951 5.73484 9.85983C5.66451 9.93016 5.625 10.0255 5.625 10.125C5.625 10.2245 5.66451 10.3198 5.73484 10.3902C5.80516 10.4605 5.90054 10.5 6 10.5H7.5C7.59946 10.5 7.69484 10.4605 7.76517 10.3902C7.83549 10.3198 7.875 10.2245 7.875 10.125ZM5.25 6.75C5.25 6.45333 5.33797 6.16332 5.5028 5.91664C5.66762 5.66997 5.90189 5.47771 6.17598 5.36418C6.45006 5.25065 6.75166 5.22094 7.04264 5.27882C7.33361 5.3367 7.60088 5.47956 7.81066 5.68934C8.02044 5.89912 8.1633 6.16639 8.22118 6.45736C8.27906 6.74834 8.24935 7.04994 8.13582 7.32403C8.02229 7.59811 7.83003 7.83238 7.58335 7.9972C7.33668 8.16203 7.04667 8.25 6.75 8.25C6.35218 8.25 5.97064 8.09196 5.68934 7.81066C5.40804 7.52936 5.25 7.14782 5.25 6.75Z" fill="black"/>
<path d="M9.56856 12.0439L12.2821 12.7384C12.3452 12.7546 12.4114 12.7541 12.4742 12.7369C12.537 12.7197 12.5943 12.6864 12.6403 12.6404C12.6864 12.5943 12.7197 12.537 12.7369 12.4742C12.7541 12.4114 12.7546 12.3452 12.7384 12.2821L12.0439 9.56857C12.7214 8.29788 12.9198 6.82612 12.6032 5.42138C12.2866 4.01663 11.4759 2.77235 10.3188 1.91517C9.16172 1.05799 7.73524 0.644949 6.29918 0.751269C4.86312 0.857588 3.51302 1.4762 2.49479 2.49443C1.47657 3.51266 0.857955 4.86275 0.751635 6.29882C0.645315 7.73488 1.05836 9.16136 1.91554 10.3184C2.77272 11.4755 4.01699 12.2862 5.42174 12.6028C6.82649 12.9195 8.29824 12.721 9.56893 12.0436L9.56856 12.0439ZM1.50006 6.75007C1.49914 5.94634 1.68278 5.15313 2.0368 4.43157C2.39083 3.71001 2.9058 3.07937 3.54203 2.58824C4.17825 2.09712 4.91874 1.75863 5.70643 1.59886C6.49412 1.43909 7.30798 1.46231 8.08528 1.66672C8.86259 1.87113 9.58258 2.25128 10.1898 2.77788C10.797 3.30447 11.2751 3.96344 11.5875 4.70401C11.8998 5.44458 12.0379 6.24697 11.9912 7.04934C11.9444 7.85171 11.7141 8.63264 11.3179 9.33194C11.2698 9.41644 11.2563 9.51634 11.2804 9.61057L11.8546 11.8549L9.61056 11.2804C9.51645 11.2564 9.4167 11.2699 9.33231 11.3179C8.534 11.7705 7.63094 12.0057 6.71332 12C5.79569 11.9944 4.89559 11.7481 4.10291 11.2858C3.31022 10.8235 2.65268 10.1613 2.19595 9.36542C1.73921 8.56951 1.49926 7.66771 1.50006 6.75007Z" fill="black"/>
<path d="M8.25 13.875C8.25 13.7755 8.21049 13.6802 8.14017 13.6098C8.06984 13.5395 7.97446 13.5 7.875 13.5H3.375C3.27554 13.5 3.18016 13.5395 3.10984 13.6098C3.03951 13.6802 3 13.7755 3 13.875V15.375C3 15.4745 3.03951 15.5698 3.10984 15.6402C3.18016 15.7105 3.27554 15.75 3.375 15.75H3.75V21.375C3.75 21.8723 3.94754 22.3492 4.29917 22.7008C4.65081 23.0525 5.12772 23.25 5.625 23.25C6.12228 23.25 6.59919 23.0525 6.95083 22.7008C7.30246 22.3492 7.5 21.8723 7.5 21.375V15.75H7.875C7.97446 15.75 8.06984 15.7105 8.14017 15.6402C8.21049 15.5698 8.25 15.4745 8.25 15.375V13.875ZM5.625 22.5C5.32663 22.5 5.04048 22.3815 4.8295 22.1705C4.61853 21.9595 4.5 21.6734 4.5 21.375V21H5.25C5.34946 21 5.44484 20.9605 5.51517 20.8902C5.58549 20.8198 5.625 20.7245 5.625 20.625C5.625 20.5255 5.58549 20.4302 5.51517 20.3598C5.44484 20.2895 5.34946 20.25 5.25 20.25H4.5V19.5H5.25C5.34946 19.5 5.44484 19.4605 5.51517 19.3902C5.58549 19.3198 5.625 19.2245 5.625 19.125C5.625 19.0255 5.58549 18.9302 5.51517 18.8598C5.44484 18.7895 5.34946 18.75 5.25 18.75H4.5V18H6.75V21.375C6.75 21.6734 6.63147 21.9595 6.4205 22.1705C6.20952 22.3815 5.92337 22.5 5.625 22.5ZM6.75 17.25H4.5V15.75H6.75V17.25ZM7.5 15H3.75V14.25H7.5V15Z" fill="black"/>
<path d="M18.75 8.625C18.75 8.8475 18.816 9.06501 18.9396 9.25002C19.0632 9.43502 19.2389 9.57922 19.4445 9.66436C19.65 9.74951 19.8762 9.77179 20.0945 9.72838C20.3127 9.68498 20.5132 9.57783 20.6705 9.4205C20.8278 9.26316 20.935 9.06271 20.9784 8.84448C21.0218 8.62625 20.9995 8.40005 20.9144 8.19448C20.8292 7.98891 20.685 7.81321 20.5 7.6896C20.315 7.56598 20.0975 7.5 19.875 7.5C19.5766 7.5 19.2905 7.61853 19.0795 7.8295C18.8685 8.04048 18.75 8.32663 18.75 8.625ZM20.25 8.625C20.25 8.69917 20.228 8.77167 20.1868 8.83334C20.1456 8.89501 20.087 8.94307 20.0185 8.97145C19.95 8.99984 19.8746 9.00726 19.8018 8.99279C19.7291 8.97833 19.6623 8.94261 19.6098 8.89017C19.5574 8.83772 19.5217 8.7709 19.5072 8.69816C19.4927 8.62542 19.5002 8.55002 19.5285 8.48149C19.5569 8.41297 19.605 8.3544 19.6667 8.3132C19.7283 8.27199 19.8008 8.25 19.875 8.25C19.9745 8.25 20.0698 8.28951 20.1402 8.35983C20.2105 8.43016 20.25 8.52554 20.25 8.625Z" fill="black"/>
</g>
<defs>
<clipPath id="clip0_419_13780">
<rect width="24" height="24" fill="white"/>
</clipPath>
</defs>
</svg>
