<svg width="24" height="24" viewBox="0 0 24 24" fill="none" xmlns="http://www.w3.org/2000/svg">
<path fill-rule="evenodd" clip-rule="evenodd" d="M10.3296 3.12012H10.3584H13.6368H13.6656C14.7888 3.12012 15.672 3.12012 16.3824 3.17772C17.1072 3.23532 17.712 3.36012 18.264 3.63852C19.1616 4.09932 19.896 4.82892 20.352 5.72652C20.6304 6.27852 20.7552 6.88332 20.8128 7.60812C20.8704 8.31852 20.8704 9.20172 20.8704 10.3249V10.3537V13.6321V13.6609C20.8704 14.7841 20.8704 15.6673 20.8128 16.3777C20.7792 16.7857 20.7264 17.1601 20.6352 17.5009L20.6928 17.5729L20.5968 17.6497C20.5344 17.8609 20.4528 18.0625 20.352 18.2593C19.8912 19.1569 19.1616 19.8913 18.264 20.3473C17.712 20.6257 17.1072 20.7505 16.3824 20.8081C15.672 20.8657 14.7888 20.8657 13.6656 20.8657H13.6368H10.3584H10.3296C9.20639 20.8657 8.32319 20.8657 7.61279 20.8081C6.888 20.7505 6.2832 20.6257 5.73119 20.3473C4.8336 19.8865 4.0992 19.1569 3.6432 18.2593C3.3648 17.7073 3.24 17.1025 3.1824 16.3777C3.12 15.6769 3.12 14.7937 3.12 13.6705V13.6417V10.3633V10.3345C3.12 9.21132 3.11999 8.32812 3.17759 7.61772C3.23519 6.89292 3.36 6.28812 3.6384 5.73612C4.0992 4.83852 4.8288 4.10412 5.7264 3.64812C6.27839 3.36972 6.88319 3.24492 7.608 3.18732C8.32319 3.12012 9.20639 3.12012 10.3296 3.12012ZM19.512 13.6417C19.512 14.6497 19.512 15.4081 19.4784 16.0177L19.1856 15.6433L19.1664 15.6193C18.8304 15.1873 18.5472 14.8273 18.2976 14.5537C18.0384 14.2705 17.76 14.0353 17.4144 13.8865C16.8864 13.6657 16.296 13.6321 15.744 13.7905C15.3792 13.8961 15.0816 14.1025 14.7888 14.3521C14.5488 14.5585 14.2752 14.8273 13.9632 15.1489L12.2688 13.1137L12.2496 13.0897C11.9136 12.6817 11.6304 12.3457 11.3808 12.0913C11.1216 11.8273 10.8432 11.6017 10.5024 11.4673C9.98399 11.2609 9.40799 11.2321 8.87039 11.3905C8.51999 11.4961 8.22239 11.6929 7.93919 11.9329C7.66559 12.1633 7.35359 12.4753 6.97919 12.8497L6.95999 12.8689L4.49759 15.3313C4.48799 14.8561 4.488 14.3041 4.488 13.6465V10.3681C4.488 9.21132 4.48799 8.38092 4.54079 7.73292C4.59359 7.08972 4.69439 6.68652 4.85759 6.36012C5.18399 5.71692 5.7072 5.19372 6.35039 4.86732C6.6768 4.69932 7.08479 4.60332 7.72319 4.55052C8.37119 4.49772 9.20159 4.49772 10.3584 4.49772H13.6368C14.7936 4.49772 15.624 4.49772 16.272 4.55052C16.9152 4.60332 17.3184 4.70412 17.6448 4.86732C18.288 5.19372 18.8112 5.71692 19.1376 6.36012C19.3056 6.68652 19.4016 7.09452 19.4544 7.73292C19.5072 8.38092 19.5072 9.21132 19.5072 10.3681L19.512 13.6417ZM4.85759 17.6497C4.77599 17.4913 4.70879 17.3137 4.66079 17.0929L4.7424 17.0113L7.9248 13.8289C8.32319 13.4305 8.59679 13.1617 8.81759 12.9697C9.03839 12.7873 9.16319 12.7201 9.2544 12.6961C9.49919 12.6241 9.75839 12.6337 9.99839 12.7297C10.0896 12.7633 10.2048 12.8401 10.4064 13.0417C10.6128 13.2529 10.8576 13.5457 11.2176 13.9777L13.392 16.5937L13.4016 16.6033L15.8736 19.4785C15.2928 19.5073 14.5728 19.5073 13.6416 19.5073H10.3632C9.20639 19.5073 8.37599 19.5073 7.72799 19.4545C7.08479 19.4017 6.68159 19.3009 6.35519 19.1377C5.70719 18.8161 5.18399 18.2929 4.85759 17.6497ZM17.6496 19.1425C17.5872 19.1761 17.5248 19.2049 17.4528 19.2289L17.1168 18.8401L14.8416 16.1953C15.2064 15.8257 15.4608 15.5713 15.672 15.3889C15.8976 15.1969 16.0272 15.1297 16.1184 15.1009C16.368 15.0289 16.6368 15.0433 16.8768 15.1441C16.968 15.1825 17.088 15.2641 17.2896 15.4801C17.496 15.7057 17.7408 16.0177 18.1008 16.4785L19.0848 17.7409C18.7632 18.3409 18.2592 18.8305 17.6496 19.1425ZM14.5056 9.26892C14.5056 8.64012 15.0144 8.13132 15.6432 8.13132C16.272 8.13132 16.7808 8.64012 16.7808 9.26892C16.7808 9.89772 16.272 10.4065 15.6432 10.4065C15.0144 10.4065 14.5056 9.89772 14.5056 9.26892ZM15.6432 6.76332C14.2608 6.76332 13.1376 7.88652 13.1376 9.26892C13.1376 10.6513 14.2608 11.7745 15.6432 11.7745C17.0256 11.7745 18.1488 10.6513 18.1488 9.26892C18.1488 7.88652 17.0256 6.76332 15.6432 6.76332Z" fill="#060200"/>
</svg>
