<svg width="42" height="42" viewBox="0 0 42 42" fill="none" xmlns="http://www.w3.org/2000/svg">
<g filter="url(#filter0_d_373_6818)">
<rect x="6" y="4" width="30" height="30" rx="15" fill="white"/>
<path d="M27 19C27 22.3137 24.3137 25 21 25C17.6863 25 15 22.3137 15 19C15 15.6863 17.6863 13 21 13C24.3137 13 27 15.6863 27 19Z" stroke="#929292" stroke-width="1.5"/>
<path d="M28.8896 11.1104L29.0358 10.9643M12.9643 27.0358L13.1104 26.8897M21 7.84242V7.75M21 30.25V30.1576M9.84242 19H9.75M32.25 19H32.1576M13.1104 11.1104L12.9643 10.9643M29.0357 27.0357L28.8896 26.8897" stroke="#929292" stroke-width="1.5" stroke-linecap="round" stroke-linejoin="round"/>
</g>
<defs>
<filter id="filter0_d_373_6818" x="0" y="0" width="42" height="42" filterUnits="userSpaceOnUse" color-interpolation-filters="sRGB">
<feFlood flood-opacity="0" result="BackgroundImageFix"/>
<feColorMatrix in="SourceAlpha" type="matrix" values="0 0 0 0 0 0 0 0 0 0 0 0 0 0 0 0 0 0 127 0" result="hardAlpha"/>
<feOffset dy="2"/>
<feGaussianBlur stdDeviation="3"/>
<feComposite in2="hardAlpha" operator="out"/>
<feColorMatrix type="matrix" values="0 0 0 0 0.172549 0 0 0 0 0.611765 0 0 0 0 1 0 0 0 0.15 0"/>
<feBlend mode="normal" in2="BackgroundImageFix" result="effect1_dropShadow_373_6818"/>
<feBlend mode="normal" in="SourceGraphic" in2="effect1_dropShadow_373_6818" result="shape"/>
</filter>
</defs>
</svg>
